<mxfile host="app.diagrams.net" modified="2024-01-15T20:58:59.126Z" agent="Mozilla/5.0 (X11; Linux x86_64; rv:121.0) Gecko/20100101 Firefox/121.0" version="22.1.18" etag="9oYC6gFphtHyE1A8zR3j" type="github">
  <diagram name="Page-1" id="cVxkNjJ3RI8UVwCHJS7d">
    <mxGraphModel>
      <root>
        <mxCell id="0" />
        <mxCell id="1" parent="0" />
      </root>
    </mxGraphModel>
  </diagram>
</mxfile>
